<mxfile host="app.diagrams.net" modified="2022-05-23T19:22:34.656Z" agent="5.0 (X11)" etag="CXr2mA_7B2rd4lF2d6BA" version="18.0.6" type="github">
  <diagram id="f_M_BV4vzWHAYqFdbZKb" name="Page-1">
    <mxGraphModel dx="756" dy="1119" grid="1" gridSize="10" guides="1" tooltips="1" connect="1" arrows="1" fold="1" page="1" pageScale="1" pageWidth="850" pageHeight="1100" math="0" shadow="0">
      <root>
        <mxCell id="0" />
        <mxCell id="1" parent="0" />
        <mxCell id="i98yv0iWhbBMQ4a5bC5F-2" value="unzip_file" style="shape=hexagon;perimeter=hexagonPerimeter2;whiteSpace=wrap;html=1;fixedSize=1;fillColor=#71a4df;fontColor=#000000;strokeColor=#3C6DDF;" vertex="1" parent="1">
          <mxGeometry x="140" y="180" width="130" height="40" as="geometry" />
        </mxCell>
        <mxCell id="i98yv0iWhbBMQ4a5bC5F-4" value="Gziped input" style="swimlane;fontStyle=0;childLayout=stackLayout;horizontal=1;startSize=30;horizontalStack=0;resizeParent=1;resizeParentMax=0;resizeLast=0;collapsible=1;marginBottom=0;strokeColor=#3A5431;fillColor=#596E51;fontColor=#ffffff;strokeWidth=2;" vertex="1" parent="1">
          <mxGeometry x="350" y="60" width="140" height="90" as="geometry" />
        </mxCell>
        <mxCell id="i98yv0iWhbBMQ4a5bC5F-5" value="Input_R1.fq.gz" style="text;strokeColor=#3A5431;fillColor=#6d8764;align=left;verticalAlign=middle;spacingLeft=4;spacingRight=4;overflow=hidden;points=[[0,0.5],[1,0.5]];portConstraint=eastwest;rotatable=0;fontColor=#ffffff;" vertex="1" parent="i98yv0iWhbBMQ4a5bC5F-4">
          <mxGeometry y="30" width="140" height="30" as="geometry" />
        </mxCell>
        <mxCell id="i98yv0iWhbBMQ4a5bC5F-6" value="Input_R1.fq.gz" style="text;strokeColor=#3A5431;fillColor=#6d8764;align=left;verticalAlign=middle;spacingLeft=4;spacingRight=4;overflow=hidden;points=[[0,0.5],[1,0.5]];portConstraint=eastwest;rotatable=0;fontColor=#ffffff;" vertex="1" parent="i98yv0iWhbBMQ4a5bC5F-4">
          <mxGeometry y="60" width="140" height="30" as="geometry" />
        </mxCell>
        <mxCell id="i98yv0iWhbBMQ4a5bC5F-8" value="Not ziped input" style="swimlane;fontStyle=0;childLayout=stackLayout;horizontal=1;startSize=30;horizontalStack=0;resizeParent=1;resizeParentMax=0;resizeLast=0;collapsible=1;marginBottom=0;strokeColor=#3A5431;fillColor=#596E51;fontColor=#ffffff;strokeWidth=2;" vertex="1" parent="1">
          <mxGeometry x="450" y="220" width="140" height="90" as="geometry" />
        </mxCell>
        <mxCell id="i98yv0iWhbBMQ4a5bC5F-9" value="Input_R1.fq" style="text;strokeColor=#3A5431;fillColor=#6d8764;align=left;verticalAlign=middle;spacingLeft=4;spacingRight=4;overflow=hidden;points=[[0,0.5],[1,0.5]];portConstraint=eastwest;rotatable=0;fontColor=#ffffff;strokeWidth=2;" vertex="1" parent="i98yv0iWhbBMQ4a5bC5F-8">
          <mxGeometry y="30" width="140" height="30" as="geometry" />
        </mxCell>
        <mxCell id="i98yv0iWhbBMQ4a5bC5F-10" value="Input_R1.fq" style="text;strokeColor=#3A5431;fillColor=#6d8764;align=left;verticalAlign=middle;spacingLeft=4;spacingRight=4;overflow=hidden;points=[[0,0.5],[1,0.5]];portConstraint=eastwest;rotatable=0;fontColor=#ffffff;strokeWidth=2;" vertex="1" parent="i98yv0iWhbBMQ4a5bC5F-8">
          <mxGeometry y="60" width="140" height="30" as="geometry" />
        </mxCell>
        <mxCell id="i98yv0iWhbBMQ4a5bC5F-11" value="&lt;h1&gt;Raw Read Input&lt;/h1&gt;&lt;div&gt;The raw input can be zipped or not zipped, named or not named. If zipped, the data will be unzipped to a temporary folder. in this case there is only one input file and if a name in not provided in the config it will be named &#39;Input&#39;.&lt;br&gt;&lt;/div&gt;" style="text;html=1;strokeColor=none;fillColor=none;spacing=5;spacingTop=-20;whiteSpace=wrap;overflow=hidden;rounded=0;" vertex="1" parent="1">
          <mxGeometry x="530" y="50" width="300" height="120" as="geometry" />
        </mxCell>
        <mxCell id="i98yv0iWhbBMQ4a5bC5F-12" value="Un-ziped data" style="swimlane;fontStyle=0;childLayout=stackLayout;horizontal=1;startSize=30;horizontalStack=0;resizeParent=1;resizeParentMax=0;resizeLast=0;collapsible=1;marginBottom=0;strokeColor=#314354;fillColor=#647687;fontColor=#ffffff;strokeWidth=2;" vertex="1" parent="1">
          <mxGeometry x="291" y="220" width="140" height="90" as="geometry" />
        </mxCell>
        <mxCell id="i98yv0iWhbBMQ4a5bC5F-13" value="Input_R1.fq" style="text;strokeColor=#314354;fillColor=#647687;align=left;verticalAlign=middle;spacingLeft=4;spacingRight=4;overflow=hidden;points=[[0,0.5],[1,0.5]];portConstraint=eastwest;rotatable=0;fontColor=#ffffff;strokeWidth=2;" vertex="1" parent="i98yv0iWhbBMQ4a5bC5F-12">
          <mxGeometry y="30" width="140" height="30" as="geometry" />
        </mxCell>
        <mxCell id="i98yv0iWhbBMQ4a5bC5F-14" value="Input_R1.fq" style="text;strokeColor=#314354;fillColor=#647687;align=left;verticalAlign=middle;spacingLeft=4;spacingRight=4;overflow=hidden;points=[[0,0.5],[1,0.5]];portConstraint=eastwest;rotatable=0;fontColor=#ffffff;strokeWidth=2;" vertex="1" parent="i98yv0iWhbBMQ4a5bC5F-12">
          <mxGeometry y="60" width="140" height="30" as="geometry" />
        </mxCell>
      </root>
    </mxGraphModel>
  </diagram>
</mxfile>
